<svg xmlns="http://www.w3.org/2000/svg" viewBox="0 0 498.07 184.4"><defs><style>.cls-1{fill:#2cb7a6;}.cls-2{fill:#ff9909;}.cls-3{font-size:68px;fill:#4f4f4f;font-family:LibreBaskerville-Bold, Libre Baskerville;font-weight:700;}.cls-4{letter-spacing:-0.03em;}.cls-5{letter-spacing:-0.02em;}</style></defs><g id="Layer_2" data-name="Layer 2"><g id="Layer_1-2" data-name="Layer 1"><path class="cls-1" d="M38.48,53.7a23.3,23.3,0,0,0-3.68-7.88c3.3-8.29-.06-16.93-6.25-22.9-6.78-6.54-16.63-9.49-25.81-12.23-1.87-.56-3.36,1-2.48,2.64,2.36,4.31,2.24,9.43,2.45,14.21.18,4.22.64,8.57,2.63,12.36a15.31,15.31,0,0,0,10.24,7.72c5,1.27,10.42.5,15.57-.34a21.09,21.09,0,0,1,3.58,7.34l.26-.08Z"/><path class="cls-1" d="M67.45,1c-2.91,4.22-7.75,6.92-12.12,9.69-3.86,2.45-7.7,5.19-10.31,8.84a14.46,14.46,0,0,0-2.36,12.33c1.21,4.7,4.47,8.54,7.7,12.16a24.41,24.41,0,0,1-5.66,7.34,1.57,1.57,0,0,0-.56,1L50,50.94l.14,0a26.86,26.86,0,0,0,3.28-4.78c9.32-1.9,15.81-9.29,18.45-17.46,2.9-8.94,1-18.37-.8-27.14A2,2,0,0,0,67.45,1Z"/><path class="cls-2" d="M50.17,50.92l-.14,0-5.89,1.41L38.48,53.7,35,54.54l-.26.08C24.88,57.15,19.19,68.94,22.07,81l1.05,4.42c2.73,11.44,36.54,91.5,48.88,99L58.78,129c-4.63,0-8.77-2.85-9.79-7.16l-.29-1.2h0a1.06,1.06,0,0,1-.09-.25L42.7,95.54a1.76,1.76,0,0,1,3.4-.82L52,119.6a1.09,1.09,0,0,1,0,.26l5.15-1.23a1.83,1.83,0,0,1-.08-.25L51.2,93.51a1.75,1.75,0,0,1,3.39-.82l5.94,24.88a2.34,2.34,0,0,1,0,.26l5.15-1.23a1.84,1.84,0,0,1-.09-.25L59.69,91.48a1.7,1.7,0,0,1,1.33-2,1.68,1.68,0,0,1,2.07,1.15L69,115.54a1.15,1.15,0,0,1,0,.26h0l.29,1.2c1,4.31-1.37,8.73-5.5,10.82l12.78,53.53c6.1-18,.51-97.31-2.1-108.21l-1-4.43C70.62,56.6,60.14,48.64,50.17,50.92Z"/><text class="cls-3" transform="translate(139.03 132.9)"><tspan class="cls-4">N</tspan><tspan x="62.08" y="0">omcate</tspan><tspan class="cls-5" x="325.31" y="0">r</tspan></text></g></g></svg>