<svg xmlns="http://www.w3.org/2000/svg" viewBox="0 0 211.27 54.85"><defs><style>.cls-1{fill:#ff3b4c;}.cls-2{fill:#fff;}.cls-3{fill:#ffb200;}</style></defs><g id="Layer_2" data-name="Layer 2"><g id="OBJECTS"><path class="cls-1" d="M23.72,7.41a23.72,23.72,0,0,0-13.67,43.1,48.15,48.15,0,0,0,.51-5.24s0-3.32-.45-4.24-1.66-1.09-1.66-3V29.64a6.33,6.33,0,0,1,3.89-3.72l-.09,10.36a19.94,19.94,0,0,1-.13,3.31,37.11,37.11,0,0,0-.18,5.68c.12,2.29.48,4.81.77,6.86a23.12,23.12,0,0,0,6.08,2.2c.26-2.2.95-5.86,1.05-9.06.11-3.72.11-5.78-.4-6.7S16,35.82,16.17,31.76s2.35-6,4.36-6,4.18,1.89,4.35,6-2.75,5.9-3.27,6.81-.51,3-.4,6.7c.11,3.44.9,7.41,1.11,9.53.46,0,.93.05,1.4.05a23.72,23.72,0,0,0,0-47.44Z"/><path class="cls-2" d="M7.85,20a21.66,21.66,0,0,1,15.52-9.25,20.41,20.41,0,0,0-19,27A21.66,21.66,0,0,1,7.85,20Z"/><path class="cls-2" d="M43,24.54a21.66,21.66,0,0,1-3.45,17.74,21.61,21.61,0,0,1-15.52,9.25,20.41,20.41,0,0,0,19-27Z"/><path class="cls-3" d="M35.25,4.05S29,7.94,35.82,14.22c3.5,3.23.08,6.22-2.4,8.89-1.45,1.55-1.2,3.73,1.44,5.51,0,0-1.3-3.1,3.12-5.33a6.78,6.78,0,0,0,1-11.45C35.15,8.83,34.65,7.65,35.25,4.05Z"/><path class="cls-3" d="M33.53,0s-5.66,4.56-3.78,9.19,1.59,7.43,1.59,7.43S19.83,7.87,33.53,0Z"/><path d="M77.11,45.33,64.87,27.9h-.11V39.78a17.78,17.78,0,0,0,.1,2.18,2.59,2.59,0,0,0,.41,1.24,1.45,1.45,0,0,0,.88.58,7,7,0,0,0,1.48.17v1.11h-8.2V44a8.23,8.23,0,0,0,1.64-.18,1.72,1.72,0,0,0,1-.57A2.25,2.25,0,0,0,62.49,42,13.87,13.87,0,0,0,62.61,40V28.87A12.73,12.73,0,0,0,62.49,27a2.77,2.77,0,0,0-.41-1.2,1.56,1.56,0,0,0-.87-.62,6.53,6.53,0,0,0-1.51-.24v-1.1h7.71l11.13,16h.11V29.06a20.83,20.83,0,0,0-.09-2.17,2.74,2.74,0,0,0-.42-1.25,1.43,1.43,0,0,0-.88-.58,6.93,6.93,0,0,0-1.48-.17v-1.1H84v1.1a8.34,8.34,0,0,0-1.65.18,1.79,1.79,0,0,0-1,.57,2.29,2.29,0,0,0-.45,1.19,15.55,15.55,0,0,0-.11,2V45.33Z"/><path d="M92.88,30.14a8.61,8.61,0,0,1,3.13.57,8.12,8.12,0,0,1,2.6,1.56,7.22,7.22,0,0,1,1.77,2.36,6.92,6.92,0,0,1,.65,3,7.35,7.35,0,0,1-2.42,5.53,8.51,8.51,0,0,1-5.73,2.18,8.6,8.6,0,0,1-3.09-.56,7.94,7.94,0,0,1-2.57-1.59,7.29,7.29,0,0,1-1.74-2.45,7.43,7.43,0,0,1-.64-3.11,7.15,7.15,0,0,1,2.38-5.38,8,8,0,0,1,2.57-1.55A8.59,8.59,0,0,1,92.88,30.14Zm0,1.6a2.8,2.8,0,0,0-1.52.43,3.73,3.73,0,0,0-1.17,1.2,6,6,0,0,0-.75,1.87,10.53,10.53,0,0,0-.26,2.41,11.14,11.14,0,0,0,.26,2.49A6,6,0,0,0,90.19,42a3.71,3.71,0,0,0,1.16,1.2,2.76,2.76,0,0,0,1.53.43,2.91,2.91,0,0,0,1.56-.43A3.69,3.69,0,0,0,95.64,42a6.28,6.28,0,0,0,.77-1.89,9.84,9.84,0,0,0,.28-2.46,9.41,9.41,0,0,0-.28-2.4,6.49,6.49,0,0,0-.77-1.87,3.75,3.75,0,0,0-1.2-1.21A2.91,2.91,0,0,0,92.88,31.74Z"/><path d="M109.18,40.5c0,.77,0,1.38,0,1.82a2.12,2.12,0,0,0,.3,1,1.18,1.18,0,0,0,.72.45,8.13,8.13,0,0,0,1.3.17v1.11h-8.73V44a8.58,8.58,0,0,0,1.33-.17,1.18,1.18,0,0,0,.74-.44,2,2,0,0,0,.34-1,14.37,14.37,0,0,0,.08-1.67V37.29c0-1,0-1.92,0-2.62a7.79,7.79,0,0,0-.15-1.44,2.2,2.2,0,0,0-.21-.56.81.81,0,0,0-.39-.33,1.93,1.93,0,0,0-.67-.17,10.72,10.72,0,0,0-1.08,0v-.94l5.33-1.05.33,2.4h.17a7.6,7.6,0,0,1,2.33-1.85,6.29,6.29,0,0,1,2.72-.55,6.37,6.37,0,0,1,3,.63,4.29,4.29,0,0,1,1.8,1.83h.11a6.95,6.95,0,0,1,5.33-2.46,9.17,9.17,0,0,1,2.88.41,4.47,4.47,0,0,1,1.92,1.19,4.11,4.11,0,0,1,.82,1.66,11.74,11.74,0,0,1,.26,2.84V40.5c0,.75,0,1.35.07,1.79a2.2,2.2,0,0,0,.32,1,1.14,1.14,0,0,0,.72.46,7.81,7.81,0,0,0,1.3.17v1.11h-8.73V44a6.67,6.67,0,0,0,1.31-.15,1.27,1.27,0,0,0,.74-.47,1.91,1.91,0,0,0,.34-.95c0-.41.06-1,.06-1.66V37.1a15.17,15.17,0,0,0-.16-2.43,4.62,4.62,0,0,0-.53-1.6,2,2,0,0,0-1-.87,3.48,3.48,0,0,0-1.45-.27,2.61,2.61,0,0,0-1.59.47,3.85,3.85,0,0,0-1,1.22,6.59,6.59,0,0,0-.72,3.23V40.5c0,.75,0,1.35,0,1.79a2.09,2.09,0,0,0,.31,1,1.16,1.16,0,0,0,.73.46,8.41,8.41,0,0,0,1.34.17v1.11h-8.76V44a8.43,8.43,0,0,0,1.32-.17,1.24,1.24,0,0,0,.74-.44,1.75,1.75,0,0,0,.33-1,14.76,14.76,0,0,0,.07-1.67V37.1a15.17,15.17,0,0,0-.16-2.43,4.41,4.41,0,0,0-.54-1.6,2.1,2.1,0,0,0-1-.87,3.76,3.76,0,0,0-1.52-.27,2.44,2.44,0,0,0-1.51.45,3.48,3.48,0,0,0-1,1.18,6.06,6.06,0,0,0-.55,1.52,8,8,0,0,0-.19,1.77Z"/><path d="M151.8,23.79h1.35l-.55,7h-1.11a7.24,7.24,0,0,0-2.25-4,5.89,5.89,0,0,0-4-1.46,6.29,6.29,0,0,0-2.9.64,6.09,6.09,0,0,0-2.15,1.86,8.63,8.63,0,0,0-1.32,2.92,15.41,15.41,0,0,0-.46,3.88,10.68,10.68,0,0,0,1.76,6.59,6.09,6.09,0,0,0,5.18,2.31A7,7,0,0,0,149.88,42a8.37,8.37,0,0,0,2.58-4.45h1.22v7.49h-1.3L152,42.87a11.35,11.35,0,0,1-7.38,2.46,13.36,13.36,0,0,1-4.55-.74,9.92,9.92,0,0,1-3.48-2.12,9.34,9.34,0,0,1-2.23-3.33,11.67,11.67,0,0,1-.78-4.36,12.14,12.14,0,0,1,.83-4.59,10.18,10.18,0,0,1,5.92-5.86,12.47,12.47,0,0,1,4.63-.82,10.39,10.39,0,0,1,3.15.47,14.79,14.79,0,0,1,3.17,1.52Z"/><path d="M164.5,35.72V34.56a3.79,3.79,0,0,0-.56-2.33,2.08,2.08,0,0,0-1.76-.74,1.62,1.62,0,0,0-1.21.43,3.91,3.91,0,0,0-.77,1.42,2.58,2.58,0,0,1-.71,1.08,1.86,1.86,0,0,1-1.26.39,1.49,1.49,0,0,1-1.18-.47,2,2,0,0,1-.42-1.33,2.34,2.34,0,0,1,1.45-2.1,9.73,9.73,0,0,1,4.38-.77c2.06,0,3.54.37,4.42,1.12A4.65,4.65,0,0,1,168.2,35v6c0,1.57.32,2.35.94,2.35a1.5,1.5,0,0,0,1-.36l.42.8a2.64,2.64,0,0,1-1.21,1.09,4,4,0,0,1-1.83.4,2.44,2.44,0,0,1-1.94-.77,3.26,3.26,0,0,1-.66-2.18h-.14a5.66,5.66,0,0,1-2.07,2.18,5.59,5.59,0,0,1-2.9.74,3.9,3.9,0,0,1-2.79-1,3.32,3.32,0,0,1-1.05-2.55A3.18,3.18,0,0,1,157,39.49a11.34,11.34,0,0,1,3.59-2.09Zm0,1.46a18.52,18.52,0,0,0-3.49,2A2.45,2.45,0,0,0,159.84,41a1.77,1.77,0,0,0,.44,1.27,1.45,1.45,0,0,0,1.1.47,3.27,3.27,0,0,0,1.25-.24,3.14,3.14,0,0,0,1-.62,2.79,2.79,0,0,0,.65-.93,2.73,2.73,0,0,0,.23-1.14Z"/><path d="M171.55,31.93V30.69a7.13,7.13,0,0,0,2.77-1.42,6.05,6.05,0,0,0,1.67-2.2h1.41v3.35h3.18v1.51H177.4v8.49a5.65,5.65,0,0,0,.38,2.43,1.28,1.28,0,0,0,1.25.71,1.76,1.76,0,0,0,1.63-1l.58.8c-.51,1.31-1.73,2-3.64,2a4.5,4.5,0,0,1-3-.88A3.06,3.06,0,0,1,173.56,42v-10Z"/><path d="M196.32,42.49a8,8,0,0,1-6.27,2.84,8.51,8.51,0,0,1-3.1-.54A6.8,6.8,0,0,1,183,40.94a7.87,7.87,0,0,1-.55-3,8.2,8.2,0,0,1,.58-3.14,7.09,7.09,0,0,1,1.64-2.45,7.69,7.69,0,0,1,2.52-1.62,8.43,8.43,0,0,1,3.19-.58,6.26,6.26,0,0,1,4.55,1.57,5.86,5.86,0,0,1,1.63,4.42c0,.3,0,.48-.14.54a1.65,1.65,0,0,1-.77.1h-8.89a2.38,2.38,0,0,0-.11.91A7,7,0,0,0,187.83,42,3.77,3.77,0,0,0,191,43.54a5.55,5.55,0,0,0,2.31-.53,8.82,8.82,0,0,0,2.22-1.49ZM191,35.22a5.11,5.11,0,0,0,1.42-.12c.21-.08.32-.28.32-.6a2.84,2.84,0,0,0-.69-2,2.25,2.25,0,0,0-1.74-.78,2.85,2.85,0,0,0-2.12,1,4.77,4.77,0,0,0-1.2,2.5Z"/><path d="M204.69,40.77a10.79,10.79,0,0,0,.1,1.7,1.81,1.81,0,0,0,.4,1,1.46,1.46,0,0,0,.88.42,9.24,9.24,0,0,0,1.55.1v1.11H198.4V44a8.6,8.6,0,0,0,1.32-.17,1.23,1.23,0,0,0,.75-.44,1.93,1.93,0,0,0,.31-1,14.76,14.76,0,0,0,.07-1.67V37.35c0-1.14,0-2.05-.08-2.74a4.18,4.18,0,0,0-.36-1.57,1.37,1.37,0,0,0-.79-.73,4.09,4.09,0,0,0-1.34-.18v-1l5.53-1,.44,3.18h.11a6.22,6.22,0,0,1,2-2.32,4.41,4.41,0,0,1,2.57-.86,2.66,2.66,0,0,1,1.71.52,1.63,1.63,0,0,1,.67,1.33,2.23,2.23,0,0,1-.51,1.49,1.74,1.74,0,0,1-1.4.61,1.69,1.69,0,0,1-.75-.17,3.47,3.47,0,0,1-.59-.37c-.17-.14-.35-.27-.52-.39A1,1,0,0,0,207,33a1.29,1.29,0,0,0-1,.7,6,6,0,0,0-.77,1.85,14,14,0,0,0-.36,1.86,16,16,0,0,0-.14,2.06Z"/></g></g></svg>